<svg xmlns="http://www.w3.org/2000/svg" viewBox="0 0 100 100"><path fill="#f0f72f" d="M88.15,13.94L87.77,14.26L86.63,14.74L86.25,14.90L84.74,15.38L82.60,16.51L82.22,16.51L80.45,17.31L75.91,19.39L71.12,21.63L68.47,22.92L65.83,24.20L64.19,25.00L60.28,26.92L59.65,27.40L58.01,28.04L54.48,29.81L53.85,30.13L53.22,30.61L52.59,30.77L51.95,31.25L51.58,31.41L51.45,31.89L51.45,98.40L51.58,98.56L51.58,99.20L52.08,98.72L52.71,97.60L54.10,95.03L57.12,89.42L58.76,86.38L59.02,85.90L59.39,84.94L60.03,83.97L60.28,83.49L60.40,81.73L60.40,81.25L60.28,75.48L60.28,64.42L60.28,63.94L60.40,61.38L60.28,61.22L60.28,58.81L60.40,58.65L60.40,56.41L60.28,52.24L60.40,49.68L60.28,48.88L60.28,48.56L60.40,47.76L60.28,36.54L60.53,36.22L61.16,35.90L63.18,35.10L65.83,33.65L66.83,33.33L74.53,29.65L74.78,29.49L75.03,29.33L75.41,29.01L76.29,28.04L77.55,26.44L78.69,25.32L80.20,23.56L81.59,21.79L84.24,18.91L85.75,16.99L87.14,15.54L88.27,14.26L88.40,13.94Z"/><path fill="#f0f72f" d="M11.98,13.94L12.61,14.90L14.38,16.99L16.02,18.91L17.53,20.67L19.17,22.60L20.43,24.04L21.69,25.48L23.83,27.88L25.09,29.33L25.85,29.81L27.24,30.45L28.25,30.77L29.26,31.25L31.27,32.37L33.29,33.17L35.94,34.46L37.58,35.42L38.97,35.90L39.34,36.22L39.72,36.38L39.85,54.97L39.85,56.09L39.72,83.01L39.85,83.49L40.10,83.97L40.73,85.10L41.87,87.02L41.99,87.50L43.25,89.58L45.02,93.11L46.66,96.15L47.54,97.76L47.92,98.40L48.30,99.04L48.55,99.20L48.42,31.25L48.17,31.09L47.92,30.93L47.04,30.45L45.52,29.65L43.63,28.69L41.11,27.56L39.85,26.76L39.22,26.44L37.58,25.80L35.94,24.84L34.93,24.52L34.30,24.04L33.29,23.72L32.28,23.08L31.27,22.76L30.26,22.12L29.89,22.12L28.88,21.63L27.87,20.99L26.48,20.35L23.71,19.07L19.80,17.31L15.01,15.22L14.25,15.06L13.87,14.90L12.48,14.26Z"/><path fill="#f0f72f" d="M98.87,0.80L97.73,1.28L97.23,1.28L93.57,2.40L93.06,2.56L92.06,3.04L91.05,3.21L90.04,3.69L89.03,3.85L88.02,4.33L87.01,4.49L84.62,5.29L83.61,5.77L81.21,6.57L80.20,6.73L79.70,6.89L77.30,7.85L73.90,8.81L72.01,9.46L70.11,10.10L68.22,10.90L66.33,11.54L64.44,12.02L62.55,12.82L60.66,13.30L57.88,14.42L56.49,14.74L55.11,15.22L51.95,16.35L51.58,16.51L51.07,16.83L51.20,28.21L51.45,28.21L51.83,28.04L52.59,27.72L53.97,27.08L54.98,26.60L60.66,23.72L62.04,23.24L64.82,21.79L66.20,21.15L68.35,20.19L71.25,18.91L74.91,17.31L77.93,16.03L83.61,13.62L86.76,12.50L89.79,11.22L90.29,11.06L90.67,10.74L91.55,9.78L92.56,8.65L93.69,7.37L94.96,5.77L96.97,3.69L98.11,2.40L99.37,0.80Z"/><path fill="#f0f72f" d="M0.50,0.64L1.64,1.92L3.03,3.53L4.29,4.97L6.68,7.69L7.69,8.81L8.83,10.10L9.58,10.90L10.21,11.22L11.85,11.70L13.87,12.50L16.27,13.62L17.91,14.10L19.42,14.90L28.50,18.59L33.17,20.67L34.93,21.47L36.32,22.12L38.97,23.40L41.61,24.68L42.24,25.16L43.25,25.48L44.89,26.28L46.53,27.24L48.17,27.88L48.93,28.37L49.05,28.04L49.05,16.83L48.93,16.51L48.68,16.51L48.55,16.35L47.67,16.19L44.89,15.22L43.51,14.58L42.12,14.10L33.29,11.06L30.01,10.10L26.73,8.81L24.34,8.01L21.94,7.37L19.55,6.41L15.64,5.13L13.62,4.49L13.11,4.33L10.59,3.69L10.09,3.37L9.58,3.21L5.42,2.08L4.92,1.76L3.78,1.60L2.14,0.96L1.01,0.80L0.88,0.64Z"/></svg>